<mxfile host="Electron" agent="Mozilla/5.0 (Windows NT 10.0; WOW64) AppleWebKit/537.36 (KHTML, like Gecko) draw.io/28.0.6 Chrome/138.0.7204.100 Electron/37.2.3 Safari/537.36" version="28.0.6" pages="3">
  <diagram name="DeepLearning001" id="3Tcbvl6cOKVwyCPrN2Hj">
    <mxGraphModel dx="1090" dy="833" grid="1" gridSize="10" guides="1" tooltips="1" connect="1" arrows="1" fold="1" page="1" pageScale="1" pageWidth="900" pageHeight="600" background="#4D4D4D" math="1" shadow="0">
      <root>
        <mxCell id="0" />
        <mxCell id="1" parent="0" />
        <mxCell id="AGbbisHBewGf3HnXFwhT-9" value="Epoch Split into Batches" style="text;html=1;align=center;verticalAlign=middle;whiteSpace=wrap;rounded=0;fontColor=#FFFFFF;" vertex="1" parent="1">
          <mxGeometry x="575" y="10" width="160" height="30" as="geometry" />
        </mxCell>
        <mxCell id="AGbbisHBewGf3HnXFwhT-10" value="" style="group" vertex="1" connectable="0" parent="1">
          <mxGeometry x="600" y="40" width="110" height="40" as="geometry" />
        </mxCell>
        <mxCell id="AGbbisHBewGf3HnXFwhT-1" value="" style="shape=cylinder3;whiteSpace=wrap;html=1;boundedLbl=1;backgroundOutline=1;size=15;rotation=90;fillColor=#fa6800;fontColor=#000000;strokeColor=#C73500;sketch=1;curveFitting=1;jiggle=2;" vertex="1" parent="AGbbisHBewGf3HnXFwhT-10">
          <mxGeometry width="40" height="40" as="geometry" />
        </mxCell>
        <mxCell id="AGbbisHBewGf3HnXFwhT-2" value="" style="shape=cylinder3;whiteSpace=wrap;html=1;boundedLbl=1;backgroundOutline=1;size=15;rotation=90;fillColor=#fa6800;fontColor=#000000;strokeColor=#C73500;sketch=1;curveFitting=1;jiggle=2;" vertex="1" parent="AGbbisHBewGf3HnXFwhT-10">
          <mxGeometry x="10" width="40" height="40" as="geometry" />
        </mxCell>
        <mxCell id="AGbbisHBewGf3HnXFwhT-3" value="" style="shape=cylinder3;whiteSpace=wrap;html=1;boundedLbl=1;backgroundOutline=1;size=15;rotation=90;fillColor=#fa6800;fontColor=#000000;strokeColor=#C73500;sketch=1;curveFitting=1;jiggle=2;" vertex="1" parent="AGbbisHBewGf3HnXFwhT-10">
          <mxGeometry x="20" width="40" height="40" as="geometry" />
        </mxCell>
        <mxCell id="AGbbisHBewGf3HnXFwhT-4" value="" style="shape=cylinder3;whiteSpace=wrap;html=1;boundedLbl=1;backgroundOutline=1;size=15;rotation=90;fillColor=#fa6800;fontColor=#000000;strokeColor=#C73500;sketch=1;curveFitting=1;jiggle=2;" vertex="1" parent="AGbbisHBewGf3HnXFwhT-10">
          <mxGeometry x="30" width="40" height="40" as="geometry" />
        </mxCell>
        <mxCell id="AGbbisHBewGf3HnXFwhT-5" value="" style="shape=cylinder3;whiteSpace=wrap;html=1;boundedLbl=1;backgroundOutline=1;size=15;rotation=90;fillColor=#fa6800;fontColor=#000000;strokeColor=#C73500;sketch=1;curveFitting=1;jiggle=2;" vertex="1" parent="AGbbisHBewGf3HnXFwhT-10">
          <mxGeometry x="40" width="40" height="40" as="geometry" />
        </mxCell>
        <mxCell id="AGbbisHBewGf3HnXFwhT-6" value="" style="shape=cylinder3;whiteSpace=wrap;html=1;boundedLbl=1;backgroundOutline=1;size=15;rotation=90;fillColor=#fa6800;fontColor=#000000;strokeColor=#C73500;sketch=1;curveFitting=1;jiggle=2;" vertex="1" parent="AGbbisHBewGf3HnXFwhT-10">
          <mxGeometry x="50" width="40" height="40" as="geometry" />
        </mxCell>
        <mxCell id="AGbbisHBewGf3HnXFwhT-7" value="" style="shape=cylinder3;whiteSpace=wrap;html=1;boundedLbl=1;backgroundOutline=1;size=15;rotation=90;fillColor=#fa6800;fontColor=#000000;strokeColor=#C73500;sketch=1;curveFitting=1;jiggle=2;" vertex="1" parent="AGbbisHBewGf3HnXFwhT-10">
          <mxGeometry x="60" width="40" height="40" as="geometry" />
        </mxCell>
        <mxCell id="AGbbisHBewGf3HnXFwhT-8" value="" style="shape=cylinder3;whiteSpace=wrap;html=1;boundedLbl=1;backgroundOutline=1;size=15;rotation=90;fillColor=#fa6800;fontColor=#000000;strokeColor=#C73500;sketch=1;curveFitting=1;jiggle=2;" vertex="1" parent="AGbbisHBewGf3HnXFwhT-10">
          <mxGeometry x="70" width="40" height="40" as="geometry" />
        </mxCell>
        <mxCell id="AGbbisHBewGf3HnXFwhT-16" value="Weights \( \boldsymbol{W} \)" style="edgeStyle=orthogonalEdgeStyle;rounded=0;orthogonalLoop=1;jettySize=auto;html=1;entryX=0;entryY=0.5;entryDx=0;entryDy=0;strokeWidth=2;strokeColor=#E6E6E6;fontSize=14;" edge="1" parent="1" source="AGbbisHBewGf3HnXFwhT-11" target="AGbbisHBewGf3HnXFwhT-12">
          <mxGeometry relative="1" as="geometry" />
        </mxCell>
        <mxCell id="AGbbisHBewGf3HnXFwhT-17" value="Weights \( \boldsymbol{W} \)" style="edgeStyle=orthogonalEdgeStyle;rounded=0;orthogonalLoop=1;jettySize=auto;html=1;exitX=1;exitY=0.5;exitDx=0;exitDy=0;entryX=0;entryY=0.5;entryDx=0;entryDy=0;strokeWidth=2;strokeColor=#E6E6E6;fontSize=14;" edge="1" parent="1" source="AGbbisHBewGf3HnXFwhT-11" target="AGbbisHBewGf3HnXFwhT-14">
          <mxGeometry relative="1" as="geometry" />
        </mxCell>
        <mxCell id="AGbbisHBewGf3HnXFwhT-11" value="Model Weights" style="shape=process;whiteSpace=wrap;html=1;backgroundOutline=1;fillColor=#76608a;fontColor=#ffffff;strokeColor=#432D57;sketch=1;curveFitting=1;jiggle=2;glass=0;spacing=0;" vertex="1" parent="1">
          <mxGeometry x="200" y="240" width="120" height="40" as="geometry" />
        </mxCell>
        <mxCell id="AGbbisHBewGf3HnXFwhT-22" value="Model Output \( \boldsymbol{z} \)" style="edgeStyle=orthogonalEdgeStyle;rounded=0;orthogonalLoop=1;jettySize=auto;html=1;exitX=0.5;exitY=1;exitDx=0;exitDy=0;strokeColor=#B3B3B3;strokeWidth=2;align=center;verticalAlign=middle;fontFamily=Helvetica;fontSize=14;fontColor=default;labelBackgroundColor=default;endArrow=classic;" edge="1" parent="1" source="AGbbisHBewGf3HnXFwhT-12" target="AGbbisHBewGf3HnXFwhT-13">
          <mxGeometry relative="1" as="geometry" />
        </mxCell>
        <mxCell id="AGbbisHBewGf3HnXFwhT-12" value="Model Forward Pass" style="rounded=1;whiteSpace=wrap;html=1;fillColor=#e3c800;fontColor=#FFFFFF;strokeColor=#B09500;sketch=1;curveFitting=1;jiggle=2;spacing=0;" vertex="1" parent="1">
          <mxGeometry x="440" y="120" width="120" height="40" as="geometry" />
        </mxCell>
        <mxCell id="AGbbisHBewGf3HnXFwhT-23" value="\( &amp;nbsp;\frac{\mathrm{d} l}{\mathrm{d} \boldsymbol{z}} \)" style="edgeStyle=orthogonalEdgeStyle;rounded=0;orthogonalLoop=1;jettySize=auto;html=1;exitX=0.5;exitY=1;exitDx=0;exitDy=0;entryX=0.5;entryY=0;entryDx=0;entryDy=0;strokeColor=#B3B3B3;strokeWidth=2;align=center;verticalAlign=middle;fontFamily=Helvetica;fontSize=14;fontColor=default;labelBackgroundColor=default;endArrow=classic;" edge="1" parent="1" source="AGbbisHBewGf3HnXFwhT-13" target="AGbbisHBewGf3HnXFwhT-14">
          <mxGeometry relative="1" as="geometry" />
        </mxCell>
        <mxCell id="AGbbisHBewGf3HnXFwhT-13" value="Loss" style="shape=parallelogram;perimeter=parallelogramPerimeter;whiteSpace=wrap;html=1;fixedSize=1;fillColor=#e51400;fontColor=#ffffff;strokeColor=#B20000;sketch=1;curveFitting=1;jiggle=2;spacing=0;" vertex="1" parent="1">
          <mxGeometry x="440" y="240" width="120" height="40" as="geometry" />
        </mxCell>
        <mxCell id="AGbbisHBewGf3HnXFwhT-24" value="\(&amp;nbsp;&amp;nbsp;\frac{\mathrm{d} l}{\mathrm{d} \boldsymbol{W}} \)" style="edgeStyle=orthogonalEdgeStyle;rounded=0;orthogonalLoop=1;jettySize=auto;html=1;exitX=0.5;exitY=1;exitDx=0;exitDy=0;entryX=0.5;entryY=1;entryDx=0;entryDy=0;strokeColor=#B3B3B3;strokeWidth=2;align=center;verticalAlign=middle;fontFamily=Helvetica;fontSize=14;fontColor=default;labelBackgroundColor=default;endArrow=classic;" edge="1" parent="1" source="AGbbisHBewGf3HnXFwhT-14" target="AGbbisHBewGf3HnXFwhT-15">
          <mxGeometry relative="1" as="geometry" />
        </mxCell>
        <mxCell id="AGbbisHBewGf3HnXFwhT-14" value="Model Backward Pass" style="rounded=1;whiteSpace=wrap;html=1;fillColor=#6d8764;fontColor=#ffffff;strokeColor=#3A5431;sketch=1;curveFitting=1;jiggle=2;spacing=0;" vertex="1" parent="1">
          <mxGeometry x="440" y="360" width="120" height="40" as="geometry" />
        </mxCell>
        <mxCell id="AGbbisHBewGf3HnXFwhT-25" value="Update" style="edgeStyle=orthogonalEdgeStyle;rounded=0;orthogonalLoop=1;jettySize=auto;html=1;exitX=0.5;exitY=0;exitDx=0;exitDy=0;entryX=0.5;entryY=1;entryDx=0;entryDy=0;strokeColor=#B3B3B3;strokeWidth=2;align=center;verticalAlign=middle;fontFamily=Helvetica;fontSize=14;fontColor=default;labelBackgroundColor=default;endArrow=classic;" edge="1" parent="1" source="AGbbisHBewGf3HnXFwhT-15" target="AGbbisHBewGf3HnXFwhT-11">
          <mxGeometry relative="1" as="geometry" />
        </mxCell>
        <mxCell id="AGbbisHBewGf3HnXFwhT-15" value="Optimizer" style="shape=hexagon;perimeter=hexagonPerimeter2;whiteSpace=wrap;html=1;fixedSize=1;fillColor=#a0522d;fontColor=#ffffff;strokeColor=#6D1F00;sketch=1;curveFitting=1;jiggle=2;" vertex="1" parent="1">
          <mxGeometry x="200" y="360" width="120" height="40" as="geometry" />
        </mxCell>
        <mxCell id="AGbbisHBewGf3HnXFwhT-18" value="Data \( \boldsymbol{x} \)" style="edgeStyle=orthogonalEdgeStyle;rounded=0;orthogonalLoop=1;jettySize=auto;html=1;exitX=1;exitY=1;exitDx=0;exitDy=-15;exitPerimeter=0;entryX=1;entryY=0.5;entryDx=0;entryDy=0;strokeWidth=2;strokeColor=#B3B3B3;fontSize=14;" edge="1" parent="1" source="AGbbisHBewGf3HnXFwhT-1" target="AGbbisHBewGf3HnXFwhT-12">
          <mxGeometry x="0.4783" y="-20" relative="1" as="geometry">
            <mxPoint as="offset" />
          </mxGeometry>
        </mxCell>
        <mxCell id="AGbbisHBewGf3HnXFwhT-20" style="edgeStyle=orthogonalEdgeStyle;rounded=0;orthogonalLoop=1;jettySize=auto;html=1;exitX=0.855;exitY=1;exitDx=0;exitDy=-4.35;exitPerimeter=0;entryX=1;entryY=0.5;entryDx=0;entryDy=0;strokeColor=#B3B3B3;strokeWidth=2;align=center;verticalAlign=middle;fontFamily=Helvetica;fontSize=11;fontColor=default;labelBackgroundColor=default;endArrow=classic;" edge="1" parent="1" source="AGbbisHBewGf3HnXFwhT-2" target="AGbbisHBewGf3HnXFwhT-13">
          <mxGeometry relative="1" as="geometry">
            <Array as="points">
              <mxPoint x="614" y="260" />
            </Array>
          </mxGeometry>
        </mxCell>
        <mxCell id="AGbbisHBewGf3HnXFwhT-21" value="Label \( y \)" style="edgeLabel;html=1;align=center;verticalAlign=middle;resizable=0;points=[];fontSize=14;" vertex="1" connectable="0" parent="AGbbisHBewGf3HnXFwhT-20">
          <mxGeometry x="0.2614" y="2" relative="1" as="geometry">
            <mxPoint as="offset" />
          </mxGeometry>
        </mxCell>
      </root>
    </mxGraphModel>
  </diagram>
  <diagram name="DeepLearning002" id="qsD39MYy7GVl84YtyVWa">
    <mxGraphModel dx="1090" dy="825" grid="1" gridSize="10" guides="1" tooltips="1" connect="1" arrows="1" fold="1" page="1" pageScale="1" pageWidth="900" pageHeight="600" background="#4D4D4D" math="1" shadow="0">
      <root>
        <mxCell id="vzIr1YLEcBWOXwNROeN2-0" />
        <mxCell id="vzIr1YLEcBWOXwNROeN2-1" parent="vzIr1YLEcBWOXwNROeN2-0" />
        <mxCell id="vzIr1YLEcBWOXwNROeN2-2" value="Epoch Split into Batches" style="text;html=1;align=center;verticalAlign=middle;whiteSpace=wrap;rounded=0;fontColor=#FFFFFF;" parent="vzIr1YLEcBWOXwNROeN2-1" vertex="1">
          <mxGeometry x="575" y="10" width="160" height="30" as="geometry" />
        </mxCell>
        <mxCell id="vzIr1YLEcBWOXwNROeN2-12" value="Weights \( \boldsymbol{W} \)" style="edgeStyle=orthogonalEdgeStyle;rounded=0;orthogonalLoop=1;jettySize=auto;html=1;entryX=0;entryY=0.5;entryDx=0;entryDy=0;strokeWidth=2;strokeColor=#E6E6E6;" parent="vzIr1YLEcBWOXwNROeN2-1" source="vzIr1YLEcBWOXwNROeN2-14" target="vzIr1YLEcBWOXwNROeN2-16" edge="1">
          <mxGeometry relative="1" as="geometry" />
        </mxCell>
        <mxCell id="vzIr1YLEcBWOXwNROeN2-14" value="Model Weights" style="shape=process;whiteSpace=wrap;html=1;backgroundOutline=1;fillColor=#76608a;fontColor=#ffffff;strokeColor=#432D57;sketch=1;curveFitting=1;jiggle=2;glass=0;spacing=0;" parent="vzIr1YLEcBWOXwNROeN2-1" vertex="1">
          <mxGeometry x="200" y="240" width="120" height="40" as="geometry" />
        </mxCell>
        <mxCell id="vzIr1YLEcBWOXwNROeN2-15" value="Model Output \( \boldsymbol{z} \)" style="edgeStyle=orthogonalEdgeStyle;rounded=0;orthogonalLoop=1;jettySize=auto;html=1;exitX=0.5;exitY=1;exitDx=0;exitDy=0;strokeColor=#B3B3B3;strokeWidth=2;align=center;verticalAlign=middle;fontFamily=Helvetica;fontSize=11;fontColor=default;labelBackgroundColor=default;endArrow=classic;" parent="vzIr1YLEcBWOXwNROeN2-1" source="vzIr1YLEcBWOXwNROeN2-16" edge="1">
          <mxGeometry relative="1" as="geometry">
            <mxPoint x="500" y="240" as="targetPoint" />
          </mxGeometry>
        </mxCell>
        <mxCell id="vzIr1YLEcBWOXwNROeN2-16" value="Model Forward Pass" style="rounded=1;whiteSpace=wrap;html=1;fillColor=#e3c800;fontColor=#FFFFFF;strokeColor=#B09500;sketch=1;curveFitting=1;jiggle=2;spacing=0;" parent="vzIr1YLEcBWOXwNROeN2-1" vertex="1">
          <mxGeometry x="440" y="120" width="120" height="40" as="geometry" />
        </mxCell>
        <mxCell id="vzIr1YLEcBWOXwNROeN2-23" value="Data \( \boldsymbol{x} \)" style="edgeStyle=orthogonalEdgeStyle;rounded=0;orthogonalLoop=1;jettySize=auto;html=1;exitX=1;exitY=1;exitDx=0;exitDy=-15;exitPerimeter=0;entryX=1;entryY=0.5;entryDx=0;entryDy=0;strokeWidth=2;strokeColor=#B3B3B3;" parent="vzIr1YLEcBWOXwNROeN2-1" source="vzIr1YLEcBWOXwNROeN2-4" target="vzIr1YLEcBWOXwNROeN2-16" edge="1">
          <mxGeometry x="0.4783" y="-20" relative="1" as="geometry">
            <mxPoint as="offset" />
          </mxGeometry>
        </mxCell>
        <mxCell id="vzIr1YLEcBWOXwNROeN2-24" style="edgeStyle=orthogonalEdgeStyle;rounded=0;orthogonalLoop=1;jettySize=auto;html=1;exitX=0.855;exitY=1;exitDx=0;exitDy=-4.35;exitPerimeter=0;entryX=1;entryY=0.5;entryDx=0;entryDy=0;strokeColor=#B3B3B3;strokeWidth=2;align=center;verticalAlign=middle;fontFamily=Helvetica;fontSize=11;fontColor=default;labelBackgroundColor=default;endArrow=classic;" parent="vzIr1YLEcBWOXwNROeN2-1" source="vzIr1YLEcBWOXwNROeN2-5" edge="1">
          <mxGeometry relative="1" as="geometry">
            <Array as="points">
              <mxPoint x="614" y="260" />
            </Array>
            <mxPoint x="550" y="260" as="targetPoint" />
          </mxGeometry>
        </mxCell>
        <mxCell id="vzIr1YLEcBWOXwNROeN2-25" value="Label \( y \)" style="edgeLabel;html=1;align=center;verticalAlign=middle;resizable=0;points=[];" parent="vzIr1YLEcBWOXwNROeN2-24" vertex="1" connectable="0">
          <mxGeometry x="0.2614" y="2" relative="1" as="geometry">
            <mxPoint as="offset" />
          </mxGeometry>
        </mxCell>
        <mxCell id="vzIr1YLEcBWOXwNROeN2-26" value="Score" style="shape=parallelogram;perimeter=parallelogramPerimeter;whiteSpace=wrap;html=1;fixedSize=1;fillColor=#f0a30a;fontColor=#FFFFFF;strokeColor=#BD7000;sketch=1;curveFitting=1;jiggle=2;spacing=0;flipH=1;" parent="vzIr1YLEcBWOXwNROeN2-1" vertex="1">
          <mxGeometry x="440" y="240" width="120" height="40" as="geometry" />
        </mxCell>
        <mxCell id="wrvn5StYq9de84Ls-QtF-0" value="" style="endArrow=classic;html=1;rounded=0;strokeColor=#B3B3B3;" edge="1" parent="vzIr1YLEcBWOXwNROeN2-1">
          <mxGeometry width="50" height="50" relative="1" as="geometry">
            <mxPoint x="320" y="440" as="sourcePoint" />
            <mxPoint x="600" y="440" as="targetPoint" />
          </mxGeometry>
        </mxCell>
        <mxCell id="wrvn5StYq9de84Ls-QtF-1" value="" style="endArrow=classic;html=1;rounded=0;strokeColor=#B3B3B3;" edge="1" parent="vzIr1YLEcBWOXwNROeN2-1">
          <mxGeometry width="50" height="50" relative="1" as="geometry">
            <mxPoint x="320" y="440" as="sourcePoint" />
            <mxPoint x="320" y="320" as="targetPoint" />
          </mxGeometry>
        </mxCell>
        <mxCell id="wrvn5StYq9de84Ls-QtF-3" value="" style="endArrow=none;html=1;rounded=0;strokeWidth=2;sketch=1;curveFitting=1;jiggle=2;strokeColor=#F0A30A;" edge="1" parent="vzIr1YLEcBWOXwNROeN2-1">
          <mxGeometry width="50" height="50" relative="1" as="geometry">
            <mxPoint x="320" y="420" as="sourcePoint" />
            <mxPoint x="530" y="350" as="targetPoint" />
            <Array as="points">
              <mxPoint x="380" y="410" />
              <mxPoint x="420" y="370" />
              <mxPoint x="470" y="370" />
            </Array>
          </mxGeometry>
        </mxCell>
        <mxCell id="wrvn5StYq9de84Ls-QtF-4" value="Iteration" style="text;html=1;align=center;verticalAlign=middle;whiteSpace=wrap;rounded=0;fontColor=#E6E6E6;" vertex="1" parent="vzIr1YLEcBWOXwNROeN2-1">
          <mxGeometry x="430" y="450" width="60" height="30" as="geometry" />
        </mxCell>
        <mxCell id="wrvn5StYq9de84Ls-QtF-5" value="Score" style="text;html=1;align=center;verticalAlign=middle;whiteSpace=wrap;rounded=0;fontColor=#E6E6E6;rotation=-90;" vertex="1" parent="vzIr1YLEcBWOXwNROeN2-1">
          <mxGeometry x="270" y="365" width="60" height="30" as="geometry" />
        </mxCell>
        <mxCell id="vzIr1YLEcBWOXwNROeN2-4" value="" style="shape=cylinder3;whiteSpace=wrap;html=1;boundedLbl=1;backgroundOutline=1;size=15;rotation=90;fillColor=#60a917;fontColor=#ffffff;strokeColor=#2D7600;sketch=1;curveFitting=1;jiggle=2;container=0;" parent="vzIr1YLEcBWOXwNROeN2-1" vertex="1">
          <mxGeometry x="600" y="40" width="40" height="40" as="geometry" />
        </mxCell>
        <mxCell id="vzIr1YLEcBWOXwNROeN2-5" value="" style="shape=cylinder3;whiteSpace=wrap;html=1;boundedLbl=1;backgroundOutline=1;size=15;rotation=90;fillColor=#60a917;fontColor=#ffffff;strokeColor=#2D7600;sketch=1;curveFitting=1;jiggle=2;container=0;" parent="vzIr1YLEcBWOXwNROeN2-1" vertex="1">
          <mxGeometry x="610" y="40" width="40" height="40" as="geometry" />
        </mxCell>
        <mxCell id="vzIr1YLEcBWOXwNROeN2-6" value="" style="shape=cylinder3;whiteSpace=wrap;html=1;boundedLbl=1;backgroundOutline=1;size=15;rotation=90;fillColor=#60a917;fontColor=#ffffff;strokeColor=#2D7600;sketch=1;curveFitting=1;jiggle=2;container=0;" parent="vzIr1YLEcBWOXwNROeN2-1" vertex="1">
          <mxGeometry x="620" y="40" width="40" height="40" as="geometry" />
        </mxCell>
        <mxCell id="vzIr1YLEcBWOXwNROeN2-7" value="" style="shape=cylinder3;whiteSpace=wrap;html=1;boundedLbl=1;backgroundOutline=1;size=15;rotation=90;fillColor=#60a917;fontColor=#ffffff;strokeColor=#2D7600;sketch=1;curveFitting=1;jiggle=2;container=0;" parent="vzIr1YLEcBWOXwNROeN2-1" vertex="1">
          <mxGeometry x="630" y="40" width="40" height="40" as="geometry" />
        </mxCell>
        <mxCell id="vzIr1YLEcBWOXwNROeN2-8" value="" style="shape=cylinder3;whiteSpace=wrap;html=1;boundedLbl=1;backgroundOutline=1;size=15;rotation=90;fillColor=#60a917;fontColor=#ffffff;strokeColor=#2D7600;sketch=1;curveFitting=1;jiggle=2;container=0;" parent="vzIr1YLEcBWOXwNROeN2-1" vertex="1">
          <mxGeometry x="640" y="40" width="40" height="40" as="geometry" />
        </mxCell>
        <mxCell id="vzIr1YLEcBWOXwNROeN2-9" value="" style="shape=cylinder3;whiteSpace=wrap;html=1;boundedLbl=1;backgroundOutline=1;size=15;rotation=90;fillColor=#60a917;fontColor=#ffffff;strokeColor=#2D7600;sketch=1;curveFitting=1;jiggle=2;container=0;" parent="vzIr1YLEcBWOXwNROeN2-1" vertex="1">
          <mxGeometry x="650" y="40" width="40" height="40" as="geometry" />
        </mxCell>
        <mxCell id="vzIr1YLEcBWOXwNROeN2-10" value="" style="shape=cylinder3;whiteSpace=wrap;html=1;boundedLbl=1;backgroundOutline=1;size=15;rotation=90;fillColor=#60a917;fontColor=#ffffff;strokeColor=#2D7600;sketch=1;curveFitting=1;jiggle=2;container=0;" parent="vzIr1YLEcBWOXwNROeN2-1" vertex="1">
          <mxGeometry x="660" y="40" width="40" height="40" as="geometry" />
        </mxCell>
        <mxCell id="vzIr1YLEcBWOXwNROeN2-11" value="" style="shape=cylinder3;whiteSpace=wrap;html=1;boundedLbl=1;backgroundOutline=1;size=15;rotation=90;fillColor=#60a917;fontColor=#ffffff;strokeColor=#2D7600;sketch=1;curveFitting=1;jiggle=2;container=0;" parent="vzIr1YLEcBWOXwNROeN2-1" vertex="1">
          <mxGeometry x="670" y="40" width="40" height="40" as="geometry" />
        </mxCell>
        <mxCell id="SPqvK6SlEZI-qp0hrQ3g-0" value="" style="endArrow=none;html=1;rounded=0;strokeWidth=2;sketch=1;curveFitting=1;jiggle=2;strokeColor=#E51400;" edge="1" parent="vzIr1YLEcBWOXwNROeN2-1">
          <mxGeometry width="50" height="50" relative="1" as="geometry">
            <mxPoint x="320" y="420" as="sourcePoint" />
            <mxPoint x="530" y="330" as="targetPoint" />
            <Array as="points">
              <mxPoint x="380" y="390" />
              <mxPoint x="410" y="380" />
              <mxPoint x="430" y="360" />
              <mxPoint x="470" y="340" />
            </Array>
          </mxGeometry>
        </mxCell>
        <mxCell id="6LI0RvODkxJETyg9Jlqd-0" value="Validation" style="text;html=1;align=center;verticalAlign=middle;whiteSpace=wrap;rounded=0;fontColor=#F0A30A;" vertex="1" parent="vzIr1YLEcBWOXwNROeN2-1">
          <mxGeometry x="540" y="340" width="60" height="30" as="geometry" />
        </mxCell>
        <mxCell id="6LI0RvODkxJETyg9Jlqd-1" value="Training" style="text;html=1;align=center;verticalAlign=middle;whiteSpace=wrap;rounded=0;fontColor=#E51400;" vertex="1" parent="vzIr1YLEcBWOXwNROeN2-1">
          <mxGeometry x="540" y="310" width="60" height="30" as="geometry" />
        </mxCell>
      </root>
    </mxGraphModel>
  </diagram>
  <diagram name="Convolution1D" id="jBpA-BJjzPy3QbDY5DpE">
    <mxGraphModel dx="1090" dy="825" grid="1" gridSize="10" guides="1" tooltips="1" connect="1" arrows="1" fold="1" page="1" pageScale="1" pageWidth="900" pageHeight="600" background="#4D4D4D" math="1" shadow="0">
      <root>
        <mxCell id="6mPrN59UNBj6tCDzkTnd-0" />
        <mxCell id="6mPrN59UNBj6tCDzkTnd-1" parent="6mPrN59UNBj6tCDzkTnd-0" />
        <mxCell id="q4j2rNUNLcBLhw9a2CLN-0" value="" style="whiteSpace=wrap;html=1;aspect=fixed;strokeColor=#FFFFFF;fillColor=light-dark(#613e70, #EDEDED);strokeWidth=2;" vertex="1" parent="6mPrN59UNBj6tCDzkTnd-1">
          <mxGeometry x="120" y="40" width="40" height="40" as="geometry" />
        </mxCell>
        <mxCell id="q4j2rNUNLcBLhw9a2CLN-3" value="" style="whiteSpace=wrap;html=1;aspect=fixed;strokeColor=#FFFFFF;fillColor=light-dark(#959516, #EDEDED);strokeWidth=2;" vertex="1" parent="6mPrN59UNBj6tCDzkTnd-1">
          <mxGeometry x="160" y="40" width="40" height="40" as="geometry" />
        </mxCell>
        <mxCell id="q4j2rNUNLcBLhw9a2CLN-4" value="" style="whiteSpace=wrap;html=1;aspect=fixed;strokeColor=#FFFFFF;fillColor=light-dark(#166e8f, #EDEDED);strokeWidth=2;" vertex="1" parent="6mPrN59UNBj6tCDzkTnd-1">
          <mxGeometry x="200" y="40" width="40" height="40" as="geometry" />
        </mxCell>
        <mxCell id="q4j2rNUNLcBLhw9a2CLN-6" value="" style="whiteSpace=wrap;html=1;aspect=fixed;strokeColor=#FFFFFF;fillColor=light-dark(#959516, #EDEDED);strokeWidth=2;" vertex="1" parent="6mPrN59UNBj6tCDzkTnd-1">
          <mxGeometry x="240" y="40" width="40" height="40" as="geometry" />
        </mxCell>
        <mxCell id="q4j2rNUNLcBLhw9a2CLN-7" value="" style="whiteSpace=wrap;html=1;aspect=fixed;strokeColor=#FFFFFF;fillColor=light-dark(#959516, #EDEDED);strokeWidth=2;" vertex="1" parent="6mPrN59UNBj6tCDzkTnd-1">
          <mxGeometry x="280" y="40" width="40" height="40" as="geometry" />
        </mxCell>
        <mxCell id="q4j2rNUNLcBLhw9a2CLN-8" value="" style="whiteSpace=wrap;html=1;aspect=fixed;strokeColor=#FFFFFF;fillColor=light-dark(#166e8f, #EDEDED);strokeWidth=2;" vertex="1" parent="6mPrN59UNBj6tCDzkTnd-1">
          <mxGeometry x="120" y="80" width="40" height="40" as="geometry" />
        </mxCell>
        <mxCell id="q4j2rNUNLcBLhw9a2CLN-9" value="" style="whiteSpace=wrap;html=1;aspect=fixed;strokeColor=#FFFFFF;fillColor=light-dark(#187041, #EDEDED);strokeWidth=2;" vertex="1" parent="6mPrN59UNBj6tCDzkTnd-1">
          <mxGeometry x="160" y="80" width="40" height="40" as="geometry" />
        </mxCell>
        <mxCell id="q4j2rNUNLcBLhw9a2CLN-10" value="" style="whiteSpace=wrap;html=1;aspect=fixed;strokeColor=#FFFFFF;fillColor=light-dark(#961617, #EDEDED);strokeWidth=2;" vertex="1" parent="6mPrN59UNBj6tCDzkTnd-1">
          <mxGeometry x="200" y="80" width="40" height="40" as="geometry" />
        </mxCell>
        <mxCell id="q4j2rNUNLcBLhw9a2CLN-11" value="" style="whiteSpace=wrap;html=1;aspect=fixed;strokeColor=#FFFFFF;fillColor=light-dark(#613e70, #EDEDED);strokeWidth=2;" vertex="1" parent="6mPrN59UNBj6tCDzkTnd-1">
          <mxGeometry x="240" y="80" width="40" height="40" as="geometry" />
        </mxCell>
        <mxCell id="q4j2rNUNLcBLhw9a2CLN-12" value="" style="whiteSpace=wrap;html=1;aspect=fixed;strokeColor=#FFFFFF;fillColor=light-dark(#613e70, #EDEDED);strokeWidth=2;" vertex="1" parent="6mPrN59UNBj6tCDzkTnd-1">
          <mxGeometry x="280" y="80" width="40" height="40" as="geometry" />
        </mxCell>
        <mxCell id="q4j2rNUNLcBLhw9a2CLN-13" value="" style="whiteSpace=wrap;html=1;aspect=fixed;strokeColor=#FFFFFF;fillColor=light-dark(#187041, #EDEDED);strokeWidth=2;" vertex="1" parent="6mPrN59UNBj6tCDzkTnd-1">
          <mxGeometry x="120" y="120" width="40" height="40" as="geometry" />
        </mxCell>
        <mxCell id="q4j2rNUNLcBLhw9a2CLN-14" value="" style="whiteSpace=wrap;html=1;aspect=fixed;strokeColor=#FFFFFF;fillColor=light-dark(#959516, #EDEDED);strokeWidth=2;" vertex="1" parent="6mPrN59UNBj6tCDzkTnd-1">
          <mxGeometry x="120" y="160" width="40" height="40" as="geometry" />
        </mxCell>
        <mxCell id="q4j2rNUNLcBLhw9a2CLN-15" value="" style="whiteSpace=wrap;html=1;aspect=fixed;strokeColor=#FFFFFF;fillColor=light-dark(#8a5948, #EDEDED);strokeWidth=2;" vertex="1" parent="6mPrN59UNBj6tCDzkTnd-1">
          <mxGeometry x="120" y="200" width="40" height="40" as="geometry" />
        </mxCell>
        <mxCell id="q4j2rNUNLcBLhw9a2CLN-16" value="" style="whiteSpace=wrap;html=1;aspect=fixed;strokeColor=#FFFFFF;fillColor=light-dark(#959516, #EDEDED);strokeWidth=2;" vertex="1" parent="6mPrN59UNBj6tCDzkTnd-1">
          <mxGeometry x="160" y="200" width="40" height="40" as="geometry" />
        </mxCell>
        <mxCell id="q4j2rNUNLcBLhw9a2CLN-17" value="" style="whiteSpace=wrap;html=1;aspect=fixed;strokeColor=#FFFFFF;fillColor=light-dark(#187041, #EDEDED);strokeWidth=2;" vertex="1" parent="6mPrN59UNBj6tCDzkTnd-1">
          <mxGeometry x="160" y="160" width="40" height="40" as="geometry" />
        </mxCell>
        <mxCell id="q4j2rNUNLcBLhw9a2CLN-18" value="" style="whiteSpace=wrap;html=1;aspect=fixed;strokeColor=#FFFFFF;fillColor=light-dark(#613e70, #EDEDED);strokeWidth=2;" vertex="1" parent="6mPrN59UNBj6tCDzkTnd-1">
          <mxGeometry x="160" y="120" width="40" height="40" as="geometry" />
        </mxCell>
        <mxCell id="q4j2rNUNLcBLhw9a2CLN-19" value="" style="whiteSpace=wrap;html=1;aspect=fixed;strokeColor=#FFFFFF;fillColor=light-dark(#961617, #EDEDED);strokeWidth=2;" vertex="1" parent="6mPrN59UNBj6tCDzkTnd-1">
          <mxGeometry x="200" y="120" width="40" height="40" as="geometry" />
        </mxCell>
        <mxCell id="q4j2rNUNLcBLhw9a2CLN-20" value="" style="whiteSpace=wrap;html=1;aspect=fixed;strokeColor=#FFFFFF;fillColor=light-dark(#8a5948, #EDEDED);strokeWidth=2;" vertex="1" parent="6mPrN59UNBj6tCDzkTnd-1">
          <mxGeometry x="200" y="160" width="40" height="40" as="geometry" />
        </mxCell>
        <mxCell id="q4j2rNUNLcBLhw9a2CLN-21" value="" style="whiteSpace=wrap;html=1;aspect=fixed;strokeColor=#FFFFFF;fillColor=light-dark(#961617, #EDEDED);strokeWidth=2;" vertex="1" parent="6mPrN59UNBj6tCDzkTnd-1">
          <mxGeometry x="200" y="200" width="40" height="40" as="geometry" />
        </mxCell>
        <mxCell id="q4j2rNUNLcBLhw9a2CLN-22" value="" style="whiteSpace=wrap;html=1;aspect=fixed;strokeColor=#FFFFFF;fillColor=light-dark(#166e8f, #EDEDED);strokeWidth=2;" vertex="1" parent="6mPrN59UNBj6tCDzkTnd-1">
          <mxGeometry x="240" y="200" width="40" height="40" as="geometry" />
        </mxCell>
        <mxCell id="q4j2rNUNLcBLhw9a2CLN-23" value="" style="whiteSpace=wrap;html=1;aspect=fixed;strokeColor=#FFFFFF;fillColor=light-dark(#166e8f, #EDEDED);strokeWidth=2;" vertex="1" parent="6mPrN59UNBj6tCDzkTnd-1">
          <mxGeometry x="240" y="160" width="40" height="40" as="geometry" />
        </mxCell>
        <mxCell id="q4j2rNUNLcBLhw9a2CLN-24" value="" style="whiteSpace=wrap;html=1;aspect=fixed;strokeColor=#FFFFFF;fillColor=light-dark(#187041, #EDEDED);strokeWidth=2;" vertex="1" parent="6mPrN59UNBj6tCDzkTnd-1">
          <mxGeometry x="240" y="120" width="40" height="40" as="geometry" />
        </mxCell>
        <mxCell id="q4j2rNUNLcBLhw9a2CLN-25" value="" style="whiteSpace=wrap;html=1;aspect=fixed;strokeColor=#FFFFFF;fillColor=light-dark(#961617, #EDEDED);strokeWidth=2;" vertex="1" parent="6mPrN59UNBj6tCDzkTnd-1">
          <mxGeometry x="280" y="120" width="40" height="40" as="geometry" />
        </mxCell>
        <mxCell id="q4j2rNUNLcBLhw9a2CLN-26" value="" style="whiteSpace=wrap;html=1;aspect=fixed;strokeColor=#FFFFFF;fillColor=light-dark(#8a5948, #EDEDED);strokeWidth=2;" vertex="1" parent="6mPrN59UNBj6tCDzkTnd-1">
          <mxGeometry x="280" y="160" width="40" height="40" as="geometry" />
        </mxCell>
        <mxCell id="q4j2rNUNLcBLhw9a2CLN-27" value="" style="whiteSpace=wrap;html=1;aspect=fixed;strokeColor=#FFFFFF;fillColor=light-dark(#187041, #EDEDED);strokeWidth=2;" vertex="1" parent="6mPrN59UNBj6tCDzkTnd-1">
          <mxGeometry x="280" y="200" width="40" height="40" as="geometry" />
        </mxCell>
        <mxCell id="q4j2rNUNLcBLhw9a2CLN-28" value="" style="whiteSpace=wrap;html=1;aspect=fixed;strokeColor=#FFFFFF;fillColor=light-dark(#166e8f, #EDEDED);strokeWidth=2;" vertex="1" parent="6mPrN59UNBj6tCDzkTnd-1">
          <mxGeometry x="340" y="40" width="40" height="40" as="geometry" />
        </mxCell>
        <mxCell id="q4j2rNUNLcBLhw9a2CLN-29" value="" style="whiteSpace=wrap;html=1;aspect=fixed;strokeColor=#FFFFFF;fillColor=light-dark(#166e8f, #EDEDED);strokeWidth=2;" vertex="1" parent="6mPrN59UNBj6tCDzkTnd-1">
          <mxGeometry x="340" y="80" width="40" height="40" as="geometry" />
        </mxCell>
        <mxCell id="q4j2rNUNLcBLhw9a2CLN-30" value="" style="whiteSpace=wrap;html=1;aspect=fixed;strokeColor=#FFFFFF;fillColor=light-dark(#166e8f, #EDEDED);strokeWidth=2;" vertex="1" parent="6mPrN59UNBj6tCDzkTnd-1">
          <mxGeometry x="340" y="120" width="40" height="40" as="geometry" />
        </mxCell>
        <mxCell id="q4j2rNUNLcBLhw9a2CLN-31" value="" style="whiteSpace=wrap;html=1;aspect=fixed;strokeColor=#FFFFFF;fillColor=light-dark(#166e8f, #EDEDED);strokeWidth=2;" vertex="1" parent="6mPrN59UNBj6tCDzkTnd-1">
          <mxGeometry x="340" y="160" width="40" height="40" as="geometry" />
        </mxCell>
        <mxCell id="q4j2rNUNLcBLhw9a2CLN-32" value="" style="whiteSpace=wrap;html=1;aspect=fixed;strokeColor=#FFFFFF;fillColor=light-dark(#166e8f, #EDEDED);strokeWidth=2;" vertex="1" parent="6mPrN59UNBj6tCDzkTnd-1">
          <mxGeometry x="340" y="200" width="40" height="40" as="geometry" />
        </mxCell>
        <mxCell id="q4j2rNUNLcBLhw9a2CLN-33" value="" style="whiteSpace=wrap;html=1;aspect=fixed;strokeColor=#FFFFFF;fillColor=light-dark(#187041, #EDEDED);strokeWidth=2;" vertex="1" parent="6mPrN59UNBj6tCDzkTnd-1">
          <mxGeometry x="40" y="40" width="40" height="40" as="geometry" />
        </mxCell>
        <mxCell id="q4j2rNUNLcBLhw9a2CLN-34" value="" style="whiteSpace=wrap;html=1;aspect=fixed;strokeColor=#FFFFFF;fillColor=light-dark(#187041, #EDEDED);strokeWidth=2;" vertex="1" parent="6mPrN59UNBj6tCDzkTnd-1">
          <mxGeometry x="40" y="80" width="40" height="40" as="geometry" />
        </mxCell>
        <mxCell id="q4j2rNUNLcBLhw9a2CLN-35" value="" style="whiteSpace=wrap;html=1;aspect=fixed;strokeColor=#FFFFFF;fillColor=light-dark(#187041, #EDEDED);strokeWidth=2;" vertex="1" parent="6mPrN59UNBj6tCDzkTnd-1">
          <mxGeometry x="40" y="120" width="40" height="40" as="geometry" />
        </mxCell>
        <mxCell id="q4j2rNUNLcBLhw9a2CLN-36" value="" style="whiteSpace=wrap;html=1;aspect=fixed;strokeColor=#FFFFFF;fillColor=light-dark(#187041, #EDEDED);strokeWidth=2;" vertex="1" parent="6mPrN59UNBj6tCDzkTnd-1">
          <mxGeometry x="40" y="160" width="40" height="40" as="geometry" />
        </mxCell>
        <mxCell id="q4j2rNUNLcBLhw9a2CLN-37" value="" style="whiteSpace=wrap;html=1;aspect=fixed;strokeColor=#FFFFFF;fillColor=light-dark(#187041, #EDEDED);strokeWidth=2;" vertex="1" parent="6mPrN59UNBj6tCDzkTnd-1">
          <mxGeometry x="40" y="200" width="40" height="40" as="geometry" />
        </mxCell>
        <mxCell id="q4j2rNUNLcBLhw9a2CLN-38" value="=" style="text;html=1;align=center;verticalAlign=middle;whiteSpace=wrap;rounded=0;fontSize=42;fontColor=#FFFFFF;" vertex="1" parent="6mPrN59UNBj6tCDzkTnd-1">
          <mxGeometry x="80" y="120" width="40" height="40" as="geometry" />
        </mxCell>
        <mxCell id="q4j2rNUNLcBLhw9a2CLN-39" value="\( \boldsymbol{z} \)" style="text;html=1;align=center;verticalAlign=middle;whiteSpace=wrap;rounded=0;fontSize=32;fontColor=#00FF00;" vertex="1" parent="6mPrN59UNBj6tCDzkTnd-1">
          <mxGeometry x="30" y="250" width="60" height="30" as="geometry" />
        </mxCell>
        <mxCell id="q4j2rNUNLcBLhw9a2CLN-40" value="\( \boldsymbol{W}_{\text{linear}} \)" style="text;html=1;align=center;verticalAlign=middle;whiteSpace=wrap;rounded=0;fontSize=32;fontColor=#FF7F00;" vertex="1" parent="6mPrN59UNBj6tCDzkTnd-1">
          <mxGeometry x="160" y="250" width="120" height="30" as="geometry" />
        </mxCell>
        <mxCell id="q4j2rNUNLcBLhw9a2CLN-41" value="\( \boldsymbol{x} \)" style="text;html=1;align=center;verticalAlign=middle;whiteSpace=wrap;rounded=0;fontSize=32;fontColor=#00FFFF;" vertex="1" parent="6mPrN59UNBj6tCDzkTnd-1">
          <mxGeometry x="330" y="250" width="60" height="30" as="geometry" />
        </mxCell>
        <mxCell id="q4j2rNUNLcBLhw9a2CLN-42" value="" style="whiteSpace=wrap;html=1;aspect=fixed;strokeColor=#FFFFFF;fillColor=light-dark(#187041, #EDEDED);strokeWidth=2;" vertex="1" parent="6mPrN59UNBj6tCDzkTnd-1">
          <mxGeometry x="480" y="40" width="40" height="40" as="geometry" />
        </mxCell>
        <mxCell id="q4j2rNUNLcBLhw9a2CLN-43" value="" style="whiteSpace=wrap;html=1;aspect=fixed;strokeColor=#FFFFFF;fillColor=light-dark(#187041, #EDEDED);strokeWidth=2;" vertex="1" parent="6mPrN59UNBj6tCDzkTnd-1">
          <mxGeometry x="480" y="80" width="40" height="40" as="geometry" />
        </mxCell>
        <mxCell id="q4j2rNUNLcBLhw9a2CLN-44" value="" style="whiteSpace=wrap;html=1;aspect=fixed;strokeColor=#FFFFFF;fillColor=light-dark(#187041, #EDEDED);strokeWidth=2;" vertex="1" parent="6mPrN59UNBj6tCDzkTnd-1">
          <mxGeometry x="480" y="120" width="40" height="40" as="geometry" />
        </mxCell>
        <mxCell id="q4j2rNUNLcBLhw9a2CLN-45" value="" style="whiteSpace=wrap;html=1;aspect=fixed;strokeColor=#FFFFFF;fillColor=light-dark(#187041, #EDEDED);strokeWidth=2;" vertex="1" parent="6mPrN59UNBj6tCDzkTnd-1">
          <mxGeometry x="480" y="160" width="40" height="40" as="geometry" />
        </mxCell>
        <mxCell id="q4j2rNUNLcBLhw9a2CLN-46" value="" style="whiteSpace=wrap;html=1;aspect=fixed;strokeColor=#FFFFFF;fillColor=light-dark(#187041, #EDEDED);strokeWidth=2;" vertex="1" parent="6mPrN59UNBj6tCDzkTnd-1">
          <mxGeometry x="480" y="200" width="40" height="40" as="geometry" />
        </mxCell>
        <mxCell id="q4j2rNUNLcBLhw9a2CLN-47" value="\( \boldsymbol{z} \)" style="text;html=1;align=center;verticalAlign=middle;whiteSpace=wrap;rounded=0;fontSize=32;fontColor=#00FF00;" vertex="1" parent="6mPrN59UNBj6tCDzkTnd-1">
          <mxGeometry x="470" y="250" width="60" height="30" as="geometry" />
        </mxCell>
        <mxCell id="q4j2rNUNLcBLhw9a2CLN-82" value="" style="whiteSpace=wrap;html=1;aspect=fixed;strokeColor=#FFFFFF;fillColor=none;strokeWidth=2;" vertex="1" parent="6mPrN59UNBj6tCDzkTnd-1">
          <mxGeometry x="640" y="40" width="40" height="40" as="geometry" />
        </mxCell>
        <mxCell id="q4j2rNUNLcBLhw9a2CLN-83" value="" style="whiteSpace=wrap;html=1;aspect=fixed;strokeColor=#FFFFFF;fillColor=none;strokeWidth=2;" vertex="1" parent="6mPrN59UNBj6tCDzkTnd-1">
          <mxGeometry x="680" y="40" width="40" height="40" as="geometry" />
        </mxCell>
        <mxCell id="q4j2rNUNLcBLhw9a2CLN-84" value="" style="whiteSpace=wrap;html=1;aspect=fixed;strokeColor=#FFFFFF;fillColor=none;strokeWidth=2;" vertex="1" parent="6mPrN59UNBj6tCDzkTnd-1">
          <mxGeometry x="720" y="40" width="40" height="40" as="geometry" />
        </mxCell>
        <mxCell id="q4j2rNUNLcBLhw9a2CLN-88" value="" style="whiteSpace=wrap;html=1;aspect=fixed;strokeColor=#FFFFFF;fillColor=light-dark(#613e70, #EDEDED);strokeWidth=2;" vertex="1" parent="6mPrN59UNBj6tCDzkTnd-1">
          <mxGeometry x="680" y="120" width="40" height="40" as="geometry" />
        </mxCell>
        <mxCell id="q4j2rNUNLcBLhw9a2CLN-89" value="" style="whiteSpace=wrap;html=1;aspect=fixed;strokeColor=#FFFFFF;fillColor=none;strokeWidth=2;" vertex="1" parent="6mPrN59UNBj6tCDzkTnd-1">
          <mxGeometry x="720" y="80" width="40" height="40" as="geometry" />
        </mxCell>
        <mxCell id="q4j2rNUNLcBLhw9a2CLN-90" value="" style="whiteSpace=wrap;html=1;aspect=fixed;strokeColor=#FFFFFF;fillColor=none;strokeWidth=2;" vertex="1" parent="6mPrN59UNBj6tCDzkTnd-1">
          <mxGeometry x="560" y="120" width="40" height="40" as="geometry" />
        </mxCell>
        <mxCell id="q4j2rNUNLcBLhw9a2CLN-91" value="" style="whiteSpace=wrap;html=1;aspect=fixed;strokeColor=#FFFFFF;fillColor=none;strokeWidth=2;" vertex="1" parent="6mPrN59UNBj6tCDzkTnd-1">
          <mxGeometry x="560" y="160" width="40" height="40" as="geometry" />
        </mxCell>
        <mxCell id="q4j2rNUNLcBLhw9a2CLN-92" value="" style="whiteSpace=wrap;html=1;aspect=fixed;strokeColor=#FFFFFF;fillColor=none;strokeWidth=2;" vertex="1" parent="6mPrN59UNBj6tCDzkTnd-1">
          <mxGeometry x="560" y="200" width="40" height="40" as="geometry" />
        </mxCell>
        <mxCell id="q4j2rNUNLcBLhw9a2CLN-93" value="" style="whiteSpace=wrap;html=1;aspect=fixed;strokeColor=#FFFFFF;fillColor=none;strokeWidth=2;" vertex="1" parent="6mPrN59UNBj6tCDzkTnd-1">
          <mxGeometry x="600" y="200" width="40" height="40" as="geometry" />
        </mxCell>
        <mxCell id="q4j2rNUNLcBLhw9a2CLN-94" value="" style="whiteSpace=wrap;html=1;aspect=fixed;strokeColor=#FFFFFF;fillColor=none;strokeWidth=2;" vertex="1" parent="6mPrN59UNBj6tCDzkTnd-1">
          <mxGeometry x="600" y="160" width="40" height="40" as="geometry" />
        </mxCell>
        <mxCell id="q4j2rNUNLcBLhw9a2CLN-96" value="" style="whiteSpace=wrap;html=1;aspect=fixed;strokeColor=#FFFFFF;fillColor=light-dark(#961617, #EDEDED);strokeWidth=2;" vertex="1" parent="6mPrN59UNBj6tCDzkTnd-1">
          <mxGeometry x="640" y="120" width="40" height="40" as="geometry" />
        </mxCell>
        <mxCell id="q4j2rNUNLcBLhw9a2CLN-98" value="" style="whiteSpace=wrap;html=1;aspect=fixed;strokeColor=#FFFFFF;fillColor=none;strokeWidth=2;" vertex="1" parent="6mPrN59UNBj6tCDzkTnd-1">
          <mxGeometry x="640" y="200" width="40" height="40" as="geometry" />
        </mxCell>
        <mxCell id="q4j2rNUNLcBLhw9a2CLN-102" value="" style="whiteSpace=wrap;html=1;aspect=fixed;strokeColor=#FFFFFF;fillColor=none;strokeWidth=2;" vertex="1" parent="6mPrN59UNBj6tCDzkTnd-1">
          <mxGeometry x="720" y="120" width="40" height="40" as="geometry" />
        </mxCell>
        <mxCell id="q4j2rNUNLcBLhw9a2CLN-105" value="" style="whiteSpace=wrap;html=1;aspect=fixed;strokeColor=#FFFFFF;fillColor=light-dark(#166e8f, #EDEDED);strokeWidth=2;" vertex="1" parent="6mPrN59UNBj6tCDzkTnd-1">
          <mxGeometry x="780" y="40" width="40" height="40" as="geometry" />
        </mxCell>
        <mxCell id="q4j2rNUNLcBLhw9a2CLN-106" value="" style="whiteSpace=wrap;html=1;aspect=fixed;strokeColor=#FFFFFF;fillColor=light-dark(#166e8f, #EDEDED);strokeWidth=2;" vertex="1" parent="6mPrN59UNBj6tCDzkTnd-1">
          <mxGeometry x="780" y="80" width="40" height="40" as="geometry" />
        </mxCell>
        <mxCell id="q4j2rNUNLcBLhw9a2CLN-107" value="" style="whiteSpace=wrap;html=1;aspect=fixed;strokeColor=#FFFFFF;fillColor=light-dark(#166e8f, #EDEDED);strokeWidth=2;" vertex="1" parent="6mPrN59UNBj6tCDzkTnd-1">
          <mxGeometry x="780" y="120" width="40" height="40" as="geometry" />
        </mxCell>
        <mxCell id="q4j2rNUNLcBLhw9a2CLN-108" value="" style="whiteSpace=wrap;html=1;aspect=fixed;strokeColor=#FFFFFF;fillColor=light-dark(#166e8f, #EDEDED);strokeWidth=2;" vertex="1" parent="6mPrN59UNBj6tCDzkTnd-1">
          <mxGeometry x="780" y="160" width="40" height="40" as="geometry" />
        </mxCell>
        <mxCell id="q4j2rNUNLcBLhw9a2CLN-109" value="" style="whiteSpace=wrap;html=1;aspect=fixed;strokeColor=#FFFFFF;fillColor=light-dark(#166e8f, #EDEDED);strokeWidth=2;" vertex="1" parent="6mPrN59UNBj6tCDzkTnd-1">
          <mxGeometry x="780" y="200" width="40" height="40" as="geometry" />
        </mxCell>
        <mxCell id="q4j2rNUNLcBLhw9a2CLN-110" value="=" style="text;html=1;align=center;verticalAlign=middle;whiteSpace=wrap;rounded=0;fontSize=42;fontColor=#FFFFFF;" vertex="1" parent="6mPrN59UNBj6tCDzkTnd-1">
          <mxGeometry x="520" y="120" width="40" height="40" as="geometry" />
        </mxCell>
        <mxCell id="q4j2rNUNLcBLhw9a2CLN-111" value="\( \boldsymbol{W} _{\text{conv}} \)" style="text;html=1;align=center;verticalAlign=middle;whiteSpace=wrap;rounded=0;fontSize=32;fontColor=#FF7F00;" vertex="1" parent="6mPrN59UNBj6tCDzkTnd-1">
          <mxGeometry x="600" y="250" width="120" height="30" as="geometry" />
        </mxCell>
        <mxCell id="q4j2rNUNLcBLhw9a2CLN-112" value="\( \boldsymbol{x} \)" style="text;html=1;align=center;verticalAlign=middle;whiteSpace=wrap;rounded=0;fontSize=32;fontColor=#00FFFF;" vertex="1" parent="6mPrN59UNBj6tCDzkTnd-1">
          <mxGeometry x="770" y="250" width="60" height="30" as="geometry" />
        </mxCell>
        <mxCell id="q4j2rNUNLcBLhw9a2CLN-113" value="" style="whiteSpace=wrap;html=1;aspect=fixed;strokeColor=#FFFFFF;fillColor=light-dark(#961617, #EDEDED);strokeWidth=2;" vertex="1" parent="6mPrN59UNBj6tCDzkTnd-1">
          <mxGeometry x="680" y="160" width="40" height="40" as="geometry" />
        </mxCell>
        <mxCell id="q4j2rNUNLcBLhw9a2CLN-115" value="" style="whiteSpace=wrap;html=1;aspect=fixed;strokeColor=#FFFFFF;fillColor=light-dark(#961617, #EDEDED);strokeWidth=2;" vertex="1" parent="6mPrN59UNBj6tCDzkTnd-1">
          <mxGeometry x="720" y="200" width="40" height="40" as="geometry" />
        </mxCell>
        <mxCell id="q4j2rNUNLcBLhw9a2CLN-116" value="" style="whiteSpace=wrap;html=1;aspect=fixed;strokeColor=#FFFFFF;fillColor=light-dark(#961617, #EDEDED);strokeWidth=2;" vertex="1" parent="6mPrN59UNBj6tCDzkTnd-1">
          <mxGeometry x="600" y="80" width="40" height="40" as="geometry" />
        </mxCell>
        <mxCell id="q4j2rNUNLcBLhw9a2CLN-117" value="" style="whiteSpace=wrap;html=1;aspect=fixed;strokeColor=#FFFFFF;fillColor=light-dark(#961617, #EDEDED);strokeWidth=2;" vertex="1" parent="6mPrN59UNBj6tCDzkTnd-1">
          <mxGeometry x="560" y="40" width="40" height="40" as="geometry" />
        </mxCell>
        <mxCell id="q4j2rNUNLcBLhw9a2CLN-118" value="" style="whiteSpace=wrap;html=1;aspect=fixed;strokeColor=#FFFFFF;fillColor=light-dark(#613e70, #EDEDED);strokeWidth=2;" vertex="1" parent="6mPrN59UNBj6tCDzkTnd-1">
          <mxGeometry x="600" y="40" width="40" height="40" as="geometry" />
        </mxCell>
        <mxCell id="q4j2rNUNLcBLhw9a2CLN-119" value="" style="whiteSpace=wrap;html=1;aspect=fixed;strokeColor=#FFFFFF;fillColor=light-dark(#613e70, #EDEDED);strokeWidth=2;" vertex="1" parent="6mPrN59UNBj6tCDzkTnd-1">
          <mxGeometry x="640" y="80" width="40" height="40" as="geometry" />
        </mxCell>
        <mxCell id="q4j2rNUNLcBLhw9a2CLN-120" value="" style="whiteSpace=wrap;html=1;aspect=fixed;strokeColor=#FFFFFF;fillColor=none;strokeWidth=2;" vertex="1" parent="6mPrN59UNBj6tCDzkTnd-1">
          <mxGeometry x="680" y="80" width="40" height="40" as="geometry" />
        </mxCell>
        <mxCell id="q4j2rNUNLcBLhw9a2CLN-121" value="" style="whiteSpace=wrap;html=1;aspect=fixed;strokeColor=#FFFFFF;fillColor=light-dark(#613e70, #EDEDED);strokeWidth=2;" vertex="1" parent="6mPrN59UNBj6tCDzkTnd-1">
          <mxGeometry x="720" y="160" width="40" height="40" as="geometry" />
        </mxCell>
        <mxCell id="q4j2rNUNLcBLhw9a2CLN-122" value="" style="whiteSpace=wrap;html=1;aspect=fixed;strokeColor=#FFFFFF;fillColor=light-dark(#959516, #EDEDED);strokeWidth=2;" vertex="1" parent="6mPrN59UNBj6tCDzkTnd-1">
          <mxGeometry x="680" y="200" width="40" height="40" as="geometry" />
        </mxCell>
        <mxCell id="q4j2rNUNLcBLhw9a2CLN-123" value="" style="whiteSpace=wrap;html=1;aspect=fixed;strokeColor=#FFFFFF;fillColor=light-dark(#959516, #EDEDED);strokeWidth=2;" vertex="1" parent="6mPrN59UNBj6tCDzkTnd-1">
          <mxGeometry x="640" y="160" width="40" height="40" as="geometry" />
        </mxCell>
        <mxCell id="q4j2rNUNLcBLhw9a2CLN-124" value="" style="whiteSpace=wrap;html=1;aspect=fixed;strokeColor=#FFFFFF;fillColor=light-dark(#959516, #EDEDED);strokeWidth=2;" vertex="1" parent="6mPrN59UNBj6tCDzkTnd-1">
          <mxGeometry x="600" y="120" width="40" height="40" as="geometry" />
        </mxCell>
        <mxCell id="q4j2rNUNLcBLhw9a2CLN-125" value="" style="whiteSpace=wrap;html=1;aspect=fixed;strokeColor=#FFFFFF;fillColor=light-dark(#959516, #EDEDED);strokeWidth=2;" vertex="1" parent="6mPrN59UNBj6tCDzkTnd-1">
          <mxGeometry x="560" y="80" width="40" height="40" as="geometry" />
        </mxCell>
        <mxCell id="q4j2rNUNLcBLhw9a2CLN-127" value="\( \boldsymbol{h} _{\text{conv}} \)" style="text;html=1;align=center;verticalAlign=middle;whiteSpace=wrap;rounded=0;fontSize=32;fontColor=#FF7F00;" vertex="1" parent="6mPrN59UNBj6tCDzkTnd-1">
          <mxGeometry x="440" y="360" width="120" height="40" as="geometry" />
        </mxCell>
        <mxCell id="q4j2rNUNLcBLhw9a2CLN-128" value="=" style="text;html=1;align=center;verticalAlign=middle;whiteSpace=wrap;rounded=0;fontSize=42;fontColor=#FFFFFF;" vertex="1" parent="6mPrN59UNBj6tCDzkTnd-1">
          <mxGeometry x="540" y="360" width="40" height="40" as="geometry" />
        </mxCell>
        <mxCell id="q4j2rNUNLcBLhw9a2CLN-129" value="" style="whiteSpace=wrap;html=1;aspect=fixed;strokeColor=#FFFFFF;fillColor=light-dark(#613e70, #EDEDED);strokeWidth=2;" vertex="1" parent="6mPrN59UNBj6tCDzkTnd-1">
          <mxGeometry x="580" y="320" width="40" height="40" as="geometry" />
        </mxCell>
        <mxCell id="q4j2rNUNLcBLhw9a2CLN-130" value="" style="whiteSpace=wrap;html=1;aspect=fixed;strokeColor=#FFFFFF;fillColor=light-dark(#961617, #EDEDED);strokeWidth=2;" vertex="1" parent="6mPrN59UNBj6tCDzkTnd-1">
          <mxGeometry x="580" y="360" width="40" height="40" as="geometry" />
        </mxCell>
        <mxCell id="q4j2rNUNLcBLhw9a2CLN-131" value="" style="whiteSpace=wrap;html=1;aspect=fixed;strokeColor=#FFFFFF;fillColor=light-dark(#959516, #EDEDED);strokeWidth=2;" vertex="1" parent="6mPrN59UNBj6tCDzkTnd-1">
          <mxGeometry x="580" y="400" width="40" height="40" as="geometry" />
        </mxCell>
        <mxCell id="q4j2rNUNLcBLhw9a2CLN-132" value="\( \boldsymbol{z} \)" style="text;html=1;align=center;verticalAlign=middle;whiteSpace=wrap;rounded=0;fontSize=32;fontColor=#00FF00;" vertex="1" parent="6mPrN59UNBj6tCDzkTnd-1">
          <mxGeometry x="640" y="365" width="40" height="30" as="geometry" />
        </mxCell>
        <mxCell id="q4j2rNUNLcBLhw9a2CLN-134" value="\( = \)" style="text;html=1;align=center;verticalAlign=middle;whiteSpace=wrap;rounded=0;fontSize=24;fontColor=#FFFFFF;" vertex="1" parent="6mPrN59UNBj6tCDzkTnd-1">
          <mxGeometry x="670" y="360" width="40" height="40" as="geometry" />
        </mxCell>
        <mxCell id="q4j2rNUNLcBLhw9a2CLN-135" value="\( \boldsymbol{h} _{\text{conv}} \)" style="text;html=1;align=center;verticalAlign=middle;whiteSpace=wrap;rounded=0;fontSize=32;fontColor=#FF7F00;" vertex="1" parent="6mPrN59UNBj6tCDzkTnd-1">
          <mxGeometry x="690" y="360" width="120" height="40" as="geometry" />
        </mxCell>
        <mxCell id="q4j2rNUNLcBLhw9a2CLN-136" value="\( \ast \)" style="text;html=1;align=center;verticalAlign=middle;whiteSpace=wrap;rounded=0;fontSize=24;fontColor=#FFFFFF;" vertex="1" parent="6mPrN59UNBj6tCDzkTnd-1">
          <mxGeometry x="780" y="360" width="40" height="40" as="geometry" />
        </mxCell>
        <mxCell id="q4j2rNUNLcBLhw9a2CLN-137" value="\( \boldsymbol{x} \)" style="text;html=1;align=center;verticalAlign=middle;whiteSpace=wrap;rounded=0;fontSize=32;fontColor=#00FFFF;" vertex="1" parent="6mPrN59UNBj6tCDzkTnd-1">
          <mxGeometry x="790" y="360" width="60" height="40" as="geometry" />
        </mxCell>
        <mxCell id="q4j2rNUNLcBLhw9a2CLN-138" value="\( \boldsymbol{z} \)" style="text;html=1;align=center;verticalAlign=middle;whiteSpace=wrap;rounded=0;fontSize=32;fontColor=#00FF00;" vertex="1" parent="6mPrN59UNBj6tCDzkTnd-1">
          <mxGeometry x="130" y="360" width="40" height="40" as="geometry" />
        </mxCell>
        <mxCell id="q4j2rNUNLcBLhw9a2CLN-139" value="\( = \)" style="text;html=1;align=center;verticalAlign=middle;whiteSpace=wrap;rounded=0;fontSize=24;fontColor=#FFFFFF;" vertex="1" parent="6mPrN59UNBj6tCDzkTnd-1">
          <mxGeometry x="160" y="360" width="40" height="40" as="geometry" />
        </mxCell>
        <mxCell id="q4j2rNUNLcBLhw9a2CLN-140" value="\( \boldsymbol{W} _{\text{linear}} \)" style="text;html=1;align=center;verticalAlign=middle;whiteSpace=wrap;rounded=0;fontSize=32;fontColor=#FF7F00;" vertex="1" parent="6mPrN59UNBj6tCDzkTnd-1">
          <mxGeometry x="190" y="360" width="120" height="40" as="geometry" />
        </mxCell>
        <mxCell id="q4j2rNUNLcBLhw9a2CLN-142" value="\( \boldsymbol{x} \)" style="text;html=1;align=center;verticalAlign=middle;whiteSpace=wrap;rounded=0;fontSize=32;fontColor=#00FFFF;" vertex="1" parent="6mPrN59UNBj6tCDzkTnd-1">
          <mxGeometry x="290" y="360" width="60" height="40" as="geometry" />
        </mxCell>
      </root>
    </mxGraphModel>
  </diagram>
</mxfile>
